<svg width="129" height="83" viewBox="0 0 129 83" fill="none" xmlns="http://www.w3.org/2000/svg">
<g clip-path="url(#clip0_181_517)">
<path d="M2.63086 82.7279L2.67719 82.5208C2.68745 82.4752 3.7364 77.9393 7.19557 75.4004C10.6549 72.8614 15.2966 73.2207 15.343 73.2246L15.5546 73.2425L15.5082 73.4496C15.498 73.4951 14.449 78.031 10.9899 80.5699C7.53052 83.1089 2.88883 82.7496 2.84244 82.7457L2.63086 82.7279ZM7.41476 75.6991C4.49 77.8457 3.34353 81.4744 3.0937 82.3881C4.04056 82.4231 7.84873 82.4159 10.7707 80.2713C13.6923 78.1269 14.8411 74.4965 15.0917 73.5822C14.1443 73.5472 10.3365 73.5546 7.41476 75.6991Z" fill="#F0F0F0"/>
<path d="M8.72271 76.759C7.04763 80.6881 2.9107 82.6885 2.9107 82.6885C2.9107 82.6885 1.48963 78.3185 3.1647 74.3894C4.83978 70.4603 8.97672 68.46 8.97672 68.46C8.97672 68.46 10.3978 72.8299 8.72271 76.759Z" fill="#F0F0F0"/>
<path d="M51.6987 33.2037C51.5449 32.9808 51.3441 32.7942 51.1104 32.6572C50.8768 32.5202 50.6159 32.4361 50.3462 32.4108C50.0765 32.3855 49.8046 32.4197 49.5495 32.5109C49.2945 32.6021 49.0625 32.7481 48.87 32.9386L44.9659 31.3003L43.3916 33.43L48.9375 35.6662C49.279 35.9684 49.7196 36.1349 50.1756 36.134C50.6316 36.1331 51.0715 35.9649 51.4119 35.6614C51.7522 35.3579 51.9694 34.94 52.0222 34.4871C52.0751 34.0341 51.96 33.5775 51.6987 33.2037Z" fill="#A0616A"/>
<path d="M44.1211 80.4304L46.5059 80.4302L46.7375 71.948L44.1206 71.2314L44.1211 80.4304Z" fill="#A0616A"/>
<path d="M43.5127 79.652L48.2095 79.6519H48.2097C49.0035 79.6519 49.7648 79.9672 50.3261 80.5286C50.8874 81.0899 51.2028 81.8511 51.2028 82.645V82.7422L43.5128 82.7425L43.5127 79.652Z" fill="#2F2E41"/>
<path d="M26.2021 80.4305L28.587 80.4304L29.7216 71.2314L26.2017 71.2316L26.2021 80.4305Z" fill="#A0616A"/>
<path d="M25.5938 79.652L30.2905 79.6519H30.2907C31.0845 79.6519 31.8458 79.9672 32.4071 80.5286C32.9684 81.0899 33.2838 81.8511 33.2839 82.645V82.7422L25.5939 82.7425L25.5938 79.652Z" fill="#2F2E41"/>
<path d="M40.5356 27.4683L48.4165 31.9337L47.0219 35.4897C47.0219 35.4897 42.1665 33.1498 41.8475 33.3151C41.5285 33.4805 40.5356 27.4683 40.5356 27.4683Z" fill="#575A89"/>
<path d="M31.6493 40.9024L29.8527 57.9701L24.4629 77.6497L28.9544 78.3683L41.89 50.9634L39.5544 36.2312L35.6018 34.7939L31.6493 40.9024Z" fill="#2F2E41"/>
<path d="M28.7744 40.7224C28.7744 40.7224 33.2664 43.3614 34.7314 48.4888C36.3001 53.9792 39.1947 62.4613 39.1947 62.4613L43.1473 78.5476L47.9981 77.29L42.2489 40.7224L37.3981 36.5902L31.11 35.8716L28.7744 40.7224Z" fill="#2F2E41"/>
<path d="M39.8461 12.6125C42.1282 12.6125 43.9782 10.7625 43.9782 8.48034C43.9782 6.19819 42.1282 4.34814 39.8461 4.34814C37.5639 4.34814 35.7139 6.19819 35.7139 8.48034C35.7139 10.7625 37.5639 12.6125 39.8461 12.6125Z" fill="#A0616A"/>
<path d="M40.2134 16.4685C40.2134 16.4685 37.2462 13.2056 34.9106 13.2056C34.1599 13.2056 28.9346 19.0279 28.7704 23.2332L27.0981 41.8006C27.0981 41.8006 43.2676 42.6989 43.4472 41.9803C43.6269 41.2616 40.2134 16.4685 40.2134 16.4685Z" fill="#575A89"/>
<path d="M37.7874 10.2867C38.1189 10.2669 38.4425 10.379 38.7717 10.4227C39.3642 10.4825 39.9587 10.328 40.4472 9.9873C40.9356 9.64656 41.2859 9.14208 41.4344 8.56531C41.4553 8.41094 41.5013 8.26104 41.5706 8.12156C41.7519 7.82565 42.1646 7.76924 42.5049 7.83728C42.8452 7.90532 43.1677 8.06458 43.5142 8.08276C43.783 8.08378 44.0474 8.01468 44.2813 7.88229C44.5153 7.7499 44.7106 7.55879 44.8481 7.32783C45.1176 6.85987 45.2322 6.31869 45.1755 5.78167L44.919 6.05088C44.8148 5.83038 44.7745 5.58505 44.8029 5.34281C44.6669 5.30661 44.524 5.30591 44.3877 5.34078C44.2515 5.37565 44.1264 5.44492 44.0246 5.54195C43.7984 5.56602 43.9691 5.12244 43.8011 4.96915C43.7194 4.91894 43.622 4.90072 43.5276 4.91799C43.0465 4.92263 42.6572 4.55461 42.2781 4.25835C41.6211 3.74618 40.8529 3.39576 40.0355 3.23542C39.4935 3.10686 38.9262 3.13435 38.3992 3.31473C37.9832 3.50145 37.6078 3.76775 37.2941 4.0986C36.4874 4.87429 35.7731 5.78569 35.4375 6.85331C35.1647 7.72777 35.1569 8.66345 35.4153 9.5423C35.5505 9.99872 35.9581 11.5618 36.5547 11.5982C37.3044 11.6439 36.8543 10.3424 37.7874 10.2867Z" fill="#2F2E41"/>
<path opacity="0.1" d="M36.7144 20.9531L32.483 27.159L31.1299 41.5745L36.7144 20.9531Z" fill="black"/>
<path d="M30.5737 47.1738C30.757 46.9744 30.8944 46.7372 30.9762 46.479C31.058 46.2208 31.0822 45.9478 31.0471 45.6792C31.0119 45.4106 30.9183 45.153 30.7729 44.9245C30.6274 44.696 30.4336 44.5022 30.2051 44.3567L30.9372 40.1865L28.5115 39.1235L27.5603 45.0272C27.3414 45.4272 27.2767 45.8937 27.3787 46.3382C27.4807 46.7826 27.7421 47.1743 28.1136 47.4389C28.485 47.7035 28.9406 47.8226 29.394 47.7738C29.8474 47.7249 30.2671 47.5114 30.5737 47.1738Z" fill="#A0616A"/>
<path d="M32.8801 15.117L28.5578 29.1384C28.5578 29.1384 26.9526 38.0733 27.6712 39.5106C28.3898 40.9479 26.978 43.7769 26.978 43.7769L31.1102 44.1362L33.119 29.4521L36.6797 18.2651C36.6797 18.2651 38.0903 14.2187 32.8801 15.117Z" fill="#575A89"/>
<path d="M50.9812 25.6672L47.7217 41.3066L60.5968 43.99L63.8564 28.3507L50.9812 25.6672Z" fill="#CACACA"/>
<path d="M51.1607 26.0501L48.0391 41.0278L60.2525 43.5733L63.3741 28.5956L51.1607 26.0501Z" fill="white"/>
<path d="M53.9439 28.1389L53.8525 28.5771L56.9186 29.2162L57.0099 28.778L53.9439 28.1389Z" fill="#E6E6E6"/>
<path d="M53.6758 29.4251L53.5845 29.8633L59.8234 31.1636L59.9147 30.7254L53.6758 29.4251Z" fill="#FD7703"/>
<path d="M53.5137 30.6702L53.4224 31.1084L57.9955 32.0615L58.0868 31.6233L53.5137 30.6702Z" fill="#E6E6E6"/>
<path d="M53.1402 31.9949L53.0488 32.4331L54.568 32.7497L54.6594 32.3115L53.1402 31.9949Z" fill="#E6E6E6"/>
<path d="M52.8662 33.3079L52.7749 33.7461L56.4755 34.5174L56.5668 34.0792L52.8662 33.3079Z" fill="#FD7703"/>
<path d="M52.5908 34.6292L52.4995 35.0674L55.5655 35.7064L55.6569 35.2682L52.5908 34.6292Z" fill="#E6E6E6"/>
<path d="M52.3228 35.9158L52.2314 36.354L58.4704 37.6543L58.5617 37.2161L52.3228 35.9158Z" fill="#FD7703"/>
<path d="M52.1612 37.1604L52.0698 37.5986L56.643 38.5518L56.7343 38.1136L52.1612 37.1604Z" fill="#E6E6E6"/>
<path d="M51.7876 38.4851L51.6963 38.9233L53.2155 39.24L53.3068 38.8018L51.7876 38.4851Z" fill="#E6E6E6"/>
<path d="M51.5137 39.7981L51.4224 40.2363L55.123 41.0076L55.2143 40.5694L51.5137 39.7981Z" fill="#E6E6E6"/>
<path d="M59.9238 82.9998H0.156869C0.115264 82.9998 0.0753642 82.9832 0.0459456 82.9538C0.0165271 82.9244 0 82.8845 0 82.8429C0 82.8013 0.0165271 82.7614 0.0459456 82.732C0.0753642 82.7026 0.115264 82.686 0.156869 82.686H59.9238C59.9654 82.686 60.0053 82.7026 60.0347 82.732C60.0642 82.7614 60.0807 82.8013 60.0807 82.8429C60.0807 82.8845 60.0642 82.9244 60.0347 82.9538C60.0053 82.9832 59.9654 82.9998 59.9238 82.9998Z" fill="#CACACA"/>
<path d="M64.336 34.048C64.4898 33.825 64.6906 33.6384 64.9242 33.5014C65.1579 33.3644 65.4188 33.2803 65.6884 33.2551C65.9581 33.2298 66.2301 33.2639 66.4851 33.3551C66.7402 33.4463 66.9721 33.5923 67.1647 33.7829L71.0688 32.1445L72.6431 34.2742L67.0972 36.5105C66.7556 36.8127 66.3151 36.9791 65.8591 36.9782C65.403 36.9773 64.9632 36.8092 64.6228 36.5057C64.2825 36.2021 64.0653 35.7843 64.0124 35.3313C63.9596 34.8783 64.0747 34.4217 64.336 34.048Z" fill="#A0616A"/>
<path d="M71.9136 81.2746L69.5287 81.2745L69.2972 72.7923L71.9141 72.0757L71.9136 81.2746Z" fill="#A0616A"/>
<path d="M72.522 80.4963L67.8252 80.4961H67.825C67.0312 80.4961 66.2699 80.8115 65.7086 81.3728C65.1473 81.9341 64.8319 82.6954 64.8319 83.4892V83.5865L72.5218 83.5867L72.522 80.4963Z" fill="#2F2E41"/>
<path d="M89.8325 81.2748L87.4477 81.2746L86.313 72.0757L89.833 72.0758L89.8325 81.2748Z" fill="#A0616A"/>
<path d="M90.4409 80.4963L85.7441 80.4961H85.744C84.9501 80.4961 84.1889 80.8115 83.6275 81.3728C83.0662 81.9341 82.7509 82.6954 82.7508 83.4892V83.5865L90.4408 83.5867L90.4409 80.4963Z" fill="#2F2E41"/>
<path d="M75.499 28.3125L67.6182 32.7779L69.0127 36.3339C69.0127 36.3339 73.8681 33.994 74.1872 34.1594C74.5062 34.3247 75.499 28.3125 75.499 28.3125Z" fill="#FD7703"/>
<path d="M84.3854 41.7466L86.182 58.8144L91.5718 78.4939L87.0803 79.2125L74.1447 51.8076L76.4803 37.0755L80.4328 35.6382L84.3854 41.7466Z" fill="#2F2E41"/>
<path d="M87.2603 41.5667C87.2603 41.5667 82.7682 44.2056 81.3032 49.3331C79.7346 54.8235 76.8399 63.3056 76.8399 63.3056L72.8874 79.3919L68.0366 78.1343L73.7857 41.5667L78.6366 37.4345L84.9247 36.7158L87.2603 41.5667Z" fill="#2F2E41"/>
<path d="M76.1886 13.4568C73.9065 13.4568 72.0564 11.6067 72.0564 9.32457C72.0564 7.04243 73.9065 5.19238 76.1886 5.19238C78.4708 5.19238 80.3208 7.04243 80.3208 9.32457C80.3208 11.6067 78.4708 13.4568 76.1886 13.4568Z" fill="#A0616A"/>
<path d="M75.8213 17.3127C75.8213 17.3127 78.7884 14.0498 81.124 14.0498C81.8748 14.0498 87.1 19.8721 87.2643 24.0774L88.9365 42.6448C88.9365 42.6448 72.7671 43.5431 72.5874 42.8245C72.4078 42.1059 75.8213 17.3127 75.8213 17.3127Z" fill="#FD7703"/>
<path d="M78.2473 11.131C77.9158 11.1112 77.5922 11.2232 77.263 11.2669C76.6704 11.3267 76.076 11.1723 75.5875 10.8315C75.099 10.4908 74.7488 9.98632 74.6002 9.40954C74.5794 9.25518 74.5334 9.10528 74.4641 8.9658C74.2828 8.66989 73.87 8.61348 73.5298 8.68152C73.1895 8.74956 72.867 8.90882 72.5204 8.927C72.2516 8.92802 71.9872 8.85892 71.7533 8.72652C71.5194 8.59413 71.324 8.40303 71.1866 8.17207C70.9171 7.70411 70.8025 7.16292 70.8592 6.62591L71.1157 6.89511C71.2199 6.67461 71.2601 6.42929 71.2318 6.18705C71.3677 6.15085 71.5107 6.15015 71.6469 6.18502C71.7832 6.21989 71.9083 6.28916 72.0101 6.38619C72.2363 6.41026 72.0656 5.96668 72.2336 5.81339C72.3153 5.76318 72.4127 5.74496 72.5071 5.76223C72.9882 5.76686 73.3774 5.39885 73.7566 5.10259C74.4135 4.59042 75.1818 4.24 75.9992 4.07965C76.5412 3.95109 77.1085 3.97859 77.6355 4.15897C78.0515 4.34569 78.4269 4.61198 78.7405 4.94284C79.5472 5.71853 80.2616 6.62993 80.5972 7.69754C80.87 8.57201 80.8777 9.50769 80.6194 10.3865C80.4842 10.843 80.0766 12.406 79.48 12.4424C78.7303 12.4882 79.1804 11.1866 78.2473 11.131Z" fill="#2F2E41"/>
<path opacity="0.1" d="M79.3203 21.7974L83.5516 28.0032L84.9048 42.4187L79.3203 21.7974Z" fill="black"/>
<path d="M85.461 48.018C85.2776 47.8186 85.1402 47.5815 85.0584 47.3233C84.9766 47.065 84.9525 46.792 84.9876 46.5234C85.0227 46.2549 85.1163 45.9972 85.2618 45.7688C85.4073 45.5403 85.6011 45.3464 85.8296 45.201L85.0975 41.0308L87.5232 39.9678L88.4743 45.8714C88.6933 46.2714 88.7579 46.7379 88.656 47.1824C88.554 47.6269 88.2925 48.0185 87.9211 48.2831C87.5497 48.5477 87.0941 48.6669 86.6407 48.618C86.1873 48.5691 85.7675 48.3557 85.461 48.018Z" fill="#A0616A"/>
<path d="M83.1546 15.9612L87.4768 29.9826C87.4768 29.9826 89.0821 38.9176 88.3635 40.3549C87.6448 41.7921 89.0566 44.6211 89.0566 44.6211L84.9244 44.9805L82.9156 30.2964L79.355 19.1093C79.355 19.1093 77.9444 15.0629 83.1546 15.9612Z" fill="#FD7703"/>
</g>
<defs>
<clipPath id="clip0_181_517">
<rect width="128.382" height="83" fill="white"/>
</clipPath>
</defs>
</svg>
